{
    "asset" : {
        "generator" : "Khronos glTF Blender I/O v1.5.17",
        "version" : "2.0"
    },
    "scene" : 0,
    "scenes" : [
        {
            "name" : "Scene",
            "nodes" : [
                5
            ]
        }
    ],
    "nodes" : [
        {
            "name" : "Bone.003",
            "rotation" : [
                1.6312854400624133e-09,
                9.32885058091415e-08,
                0.011558372527360916,
                0.9999332427978516
            ],
            "scale" : [
                1.0000001192092896,
                1.0000001192092896,
                1
            ],
            "translation" : [
                -2.6179169054785234e-08,
                1.735147476196289,
                -6.036180398832219e-14
            ]
        },
        {
            "children" : [
                0
            ],
            "name" : "Bone.002",
            "rotation" : [
                -2.3987298813921143e-09,
                -6.286737885830007e-08,
                -0.01398190576583147,
                0.9999022483825684
            ],
            "scale" : [
                1,
                1.0000001192092896,
                1
            ],
            "translation" : [
                -3.425038030968608e-14,
                1.6223734617233276,
                -3.241851231905457e-14
            ]
        },
        {
            "children" : [
                1
            ],
            "name" : "Bone.001",
            "rotation" : [
                -3.518317726047826e-08,
                -8.800131467978645e-08,
                0.023005874827504158,
                0.9997353553771973
            ],
            "scale" : [
                1,
                1.0000001192092896,
                1
            ],
            "translation" : [
                3.725298292067691e-09,
                1.8848921060562134,
                -3.219646771412954e-15
            ]
        },
        {
            "children" : [
                2
            ],
            "name" : "Bone",
            "rotation" : [
                -7.328642936954566e-08,
                3.365012801737066e-08,
                -0.00902541819959879,
                0.9999592900276184
            ],
            "scale" : [
                1,
                0.9999999403953552,
                0.9999998807907104
            ],
            "translation" : [
                -0.05670415610074997,
                0.04536333680152893,
                -6.094963644898144e-09
            ]
        },
        {
            "mesh" : 0,
            "name" : "Cube",
            "skin" : 0
        },
        {
            "children" : [
                4,
                3
            ],
            "name" : "Armature",
            "translation" : [
                0.07938582450151443,
                -3.7878382205963135,
                0
            ]
        }
    ],
    "animations" : [
        {
            "channels" : [
                {
                    "sampler" : 0,
                    "target" : {
                        "node" : 3,
                        "path" : "translation"
                    }
                },
                {
                    "sampler" : 1,
                    "target" : {
                        "node" : 3,
                        "path" : "rotation"
                    }
                },
                {
                    "sampler" : 2,
                    "target" : {
                        "node" : 3,
                        "path" : "scale"
                    }
                },
                {
                    "sampler" : 3,
                    "target" : {
                        "node" : 2,
                        "path" : "translation"
                    }
                },
                {
                    "sampler" : 4,
                    "target" : {
                        "node" : 2,
                        "path" : "rotation"
                    }
                },
                {
                    "sampler" : 5,
                    "target" : {
                        "node" : 2,
                        "path" : "scale"
                    }
                },
                {
                    "sampler" : 6,
                    "target" : {
                        "node" : 1,
                        "path" : "translation"
                    }
                },
                {
                    "sampler" : 7,
                    "target" : {
                        "node" : 1,
                        "path" : "rotation"
                    }
                },
                {
                    "sampler" : 8,
                    "target" : {
                        "node" : 1,
                        "path" : "scale"
                    }
                },
                {
                    "sampler" : 9,
                    "target" : {
                        "node" : 0,
                        "path" : "translation"
                    }
                },
                {
                    "sampler" : 10,
                    "target" : {
                        "node" : 0,
                        "path" : "rotation"
                    }
                },
                {
                    "sampler" : 11,
                    "target" : {
                        "node" : 0,
                        "path" : "scale"
                    }
                }
            ],
            "name" : "Animation0",
            "samplers" : [
                {
                    "input" : 7,
                    "interpolation" : "LINEAR",
                    "output" : 8
                },
                {
                    "input" : 7,
                    "interpolation" : "LINEAR",
                    "output" : 9
                },
                {
                    "input" : 7,
                    "interpolation" : "LINEAR",
                    "output" : 10
                },
                {
                    "input" : 7,
                    "interpolation" : "LINEAR",
                    "output" : 11
                },
                {
                    "input" : 7,
                    "interpolation" : "LINEAR",
                    "output" : 12
                },
                {
                    "input" : 7,
                    "interpolation" : "LINEAR",
                    "output" : 13
                },
                {
                    "input" : 7,
                    "interpolation" : "LINEAR",
                    "output" : 14
                },
                {
                    "input" : 7,
                    "interpolation" : "LINEAR",
                    "output" : 15
                },
                {
                    "input" : 7,
                    "interpolation" : "LINEAR",
                    "output" : 16
                },
                {
                    "input" : 7,
                    "interpolation" : "LINEAR",
                    "output" : 17
                },
                {
                    "input" : 7,
                    "interpolation" : "LINEAR",
                    "output" : 18
                },
                {
                    "input" : 7,
                    "interpolation" : "LINEAR",
                    "output" : 19
                }
            ]
        },
        {
            "channels" : [
                {
                    "sampler" : 0,
                    "target" : {
                        "node" : 3,
                        "path" : "translation"
                    }
                },
                {
                    "sampler" : 1,
                    "target" : {
                        "node" : 3,
                        "path" : "rotation"
                    }
                },
                {
                    "sampler" : 2,
                    "target" : {
                        "node" : 3,
                        "path" : "scale"
                    }
                },
                {
                    "sampler" : 3,
                    "target" : {
                        "node" : 2,
                        "path" : "translation"
                    }
                },
                {
                    "sampler" : 4,
                    "target" : {
                        "node" : 2,
                        "path" : "rotation"
                    }
                },
                {
                    "sampler" : 5,
                    "target" : {
                        "node" : 2,
                        "path" : "scale"
                    }
                },
                {
                    "sampler" : 6,
                    "target" : {
                        "node" : 1,
                        "path" : "translation"
                    }
                },
                {
                    "sampler" : 7,
                    "target" : {
                        "node" : 1,
                        "path" : "rotation"
                    }
                },
                {
                    "sampler" : 8,
                    "target" : {
                        "node" : 1,
                        "path" : "scale"
                    }
                },
                {
                    "sampler" : 9,
                    "target" : {
                        "node" : 0,
                        "path" : "translation"
                    }
                },
                {
                    "sampler" : 10,
                    "target" : {
                        "node" : 0,
                        "path" : "rotation"
                    }
                },
                {
                    "sampler" : 11,
                    "target" : {
                        "node" : 0,
                        "path" : "scale"
                    }
                }
            ],
            "name" : "Twist",
            "samplers" : [
                {
                    "input" : 20,
                    "interpolation" : "LINEAR",
                    "output" : 21
                },
                {
                    "input" : 20,
                    "interpolation" : "LINEAR",
                    "output" : 22
                },
                {
                    "input" : 20,
                    "interpolation" : "LINEAR",
                    "output" : 23
                },
                {
                    "input" : 20,
                    "interpolation" : "LINEAR",
                    "output" : 24
                },
                {
                    "input" : 20,
                    "interpolation" : "LINEAR",
                    "output" : 25
                },
                {
                    "input" : 20,
                    "interpolation" : "LINEAR",
                    "output" : 26
                },
                {
                    "input" : 20,
                    "interpolation" : "LINEAR",
                    "output" : 27
                },
                {
                    "input" : 20,
                    "interpolation" : "LINEAR",
                    "output" : 28
                },
                {
                    "input" : 20,
                    "interpolation" : "LINEAR",
                    "output" : 29
                },
                {
                    "input" : 20,
                    "interpolation" : "LINEAR",
                    "output" : 30
                },
                {
                    "input" : 20,
                    "interpolation" : "LINEAR",
                    "output" : 31
                },
                {
                    "input" : 20,
                    "interpolation" : "LINEAR",
                    "output" : 32
                }
            ]
        }
    ],
    "materials" : [
        {
            "doubleSided" : true,
            "name" : "Material",
            "pbrMetallicRoughness" : {
                "baseColorFactor" : [
                    0.800000011920929,
                    0.800000011920929,
                    0.800000011920929,
                    1
                ],
                "metallicFactor" : 0,
                "roughnessFactor" : 0.4000000059604645
            }
        }
    ],
    "meshes" : [
        {
            "name" : "Cube",
            "primitives" : [
                {
                    "attributes" : {
                        "POSITION" : 0,
                        "NORMAL" : 1,
                        "TEXCOORD_0" : 2,
                        "JOINTS_0" : 3,
                        "WEIGHTS_0" : 4
                    },
                    "indices" : 5,
                    "material" : 0
                }
            ]
        }
    ],
    "skins" : [
        {
            "inverseBindMatrices" : 6,
            "joints" : [
                3,
                2,
                1,
                0
            ],
            "name" : "Armature"
        }
    ],
    "accessors" : [
        {
            "bufferView" : 0,
            "componentType" : 5126,
            "count" : 486,
            "max" : [
                1,
                4.067879676818848,
                1
            ],
            "min" : [
                -1,
                -4.067879676818848,
                -1
            ],
            "type" : "VEC3"
        },
        {
            "bufferView" : 1,
            "componentType" : 5126,
            "count" : 486,
            "type" : "VEC3"
        },
        {
            "bufferView" : 2,
            "componentType" : 5126,
            "count" : 486,
            "type" : "VEC2"
        },
        {
            "bufferView" : 3,
            "componentType" : 5121,
            "count" : 486,
            "type" : "VEC4"
        },
        {
            "bufferView" : 4,
            "componentType" : 5126,
            "count" : 486,
            "type" : "VEC4"
        },
        {
            "bufferView" : 5,
            "componentType" : 5123,
            "count" : 2304,
            "type" : "SCALAR"
        },
        {
            "bufferView" : 6,
            "componentType" : 5126,
            "count" : 4,
            "type" : "MAT4"
        },
        {
            "bufferView" : 7,
            "componentType" : 5126,
            "count" : 51,
            "max" : [
                2.125
            ],
            "min" : [
                0.041666666666666664
            ],
            "type" : "SCALAR"
        },
        {
            "bufferView" : 8,
            "componentType" : 5126,
            "count" : 51,
            "type" : "VEC3"
        },
        {
            "bufferView" : 9,
            "componentType" : 5126,
            "count" : 51,
            "type" : "VEC4"
        },
        {
            "bufferView" : 10,
            "componentType" : 5126,
            "count" : 51,
            "type" : "VEC3"
        },
        {
            "bufferView" : 11,
            "componentType" : 5126,
            "count" : 51,
            "type" : "VEC3"
        },
        {
            "bufferView" : 12,
            "componentType" : 5126,
            "count" : 51,
            "type" : "VEC4"
        },
        {
            "bufferView" : 13,
            "componentType" : 5126,
            "count" : 51,
            "type" : "VEC3"
        },
        {
            "bufferView" : 14,
            "componentType" : 5126,
            "count" : 51,
            "type" : "VEC3"
        },
        {
            "bufferView" : 15,
            "componentType" : 5126,
            "count" : 51,
            "type" : "VEC4"
        },
        {
            "bufferView" : 16,
            "componentType" : 5126,
            "count" : 51,
            "type" : "VEC3"
        },
        {
            "bufferView" : 17,
            "componentType" : 5126,
            "count" : 51,
            "type" : "VEC3"
        },
        {
            "bufferView" : 18,
            "componentType" : 5126,
            "count" : 51,
            "type" : "VEC4"
        },
        {
            "bufferView" : 19,
            "componentType" : 5126,
            "count" : 51,
            "type" : "VEC3"
        },
        {
            "bufferView" : 20,
            "componentType" : 5126,
            "count" : 100,
            "max" : [
                4.125
            ],
            "min" : [
                0
            ],
            "type" : "SCALAR"
        },
        {
            "bufferView" : 21,
            "componentType" : 5126,
            "count" : 100,
            "type" : "VEC3"
        },
        {
            "bufferView" : 22,
            "componentType" : 5126,
            "count" : 100,
            "type" : "VEC4"
        },
        {
            "bufferView" : 23,
            "componentType" : 5126,
            "count" : 100,
            "type" : "VEC3"
        },
        {
            "bufferView" : 24,
            "componentType" : 5126,
            "count" : 100,
            "type" : "VEC3"
        },
        {
            "bufferView" : 25,
            "componentType" : 5126,
            "count" : 100,
            "type" : "VEC4"
        },
        {
            "bufferView" : 26,
            "componentType" : 5126,
            "count" : 100,
            "type" : "VEC3"
        },
        {
            "bufferView" : 27,
            "componentType" : 5126,
            "count" : 100,
            "type" : "VEC3"
        },
        {
            "bufferView" : 28,
            "componentType" : 5126,
            "count" : 100,
            "type" : "VEC4"
        },
        {
            "bufferView" : 29,
            "componentType" : 5126,
            "count" : 100,
            "type" : "VEC3"
        },
        {
            "bufferView" : 30,
            "componentType" : 5126,
            "count" : 100,
            "type" : "VEC3"
        },
        {
            "bufferView" : 31,
            "componentType" : 5126,
            "count" : 100,
            "type" : "VEC4"
        },
        {
            "bufferView" : 32,
            "componentType" : 5126,
            "count" : 100,
            "type" : "VEC3"
        }
    ],
    "bufferViews" : [
        {
            "buffer" : 0,
            "byteLength" : 5832,
            "byteOffset" : 0
        },
        {
            "buffer" : 0,
            "byteLength" : 5832,
            "byteOffset" : 5832
        },
        {
            "buffer" : 0,
            "byteLength" : 3888,
            "byteOffset" : 11664
        },
        {
            "buffer" : 0,
            "byteLength" : 1944,
            "byteOffset" : 15552
        },
        {
            "buffer" : 0,
            "byteLength" : 7776,
            "byteOffset" : 17496
        },
        {
            "buffer" : 0,
            "byteLength" : 4608,
            "byteOffset" : 25272
        },
        {
            "buffer" : 0,
            "byteLength" : 256,
            "byteOffset" : 29880
        },
        {
            "buffer" : 0,
            "byteLength" : 204,
            "byteOffset" : 30136
        },
        {
            "buffer" : 0,
            "byteLength" : 612,
            "byteOffset" : 30340
        },
        {
            "buffer" : 0,
            "byteLength" : 816,
            "byteOffset" : 30952
        },
        {
            "buffer" : 0,
            "byteLength" : 612,
            "byteOffset" : 31768
        },
        {
            "buffer" : 0,
            "byteLength" : 612,
            "byteOffset" : 32380
        },
        {
            "buffer" : 0,
            "byteLength" : 816,
            "byteOffset" : 32992
        },
        {
            "buffer" : 0,
            "byteLength" : 612,
            "byteOffset" : 33808
        },
        {
            "buffer" : 0,
            "byteLength" : 612,
            "byteOffset" : 34420
        },
        {
            "buffer" : 0,
            "byteLength" : 816,
            "byteOffset" : 35032
        },
        {
            "buffer" : 0,
            "byteLength" : 612,
            "byteOffset" : 35848
        },
        {
            "buffer" : 0,
            "byteLength" : 612,
            "byteOffset" : 36460
        },
        {
            "buffer" : 0,
            "byteLength" : 816,
            "byteOffset" : 37072
        },
        {
            "buffer" : 0,
            "byteLength" : 612,
            "byteOffset" : 37888
        },
        {
            "buffer" : 0,
            "byteLength" : 400,
            "byteOffset" : 38500
        },
        {
            "buffer" : 0,
            "byteLength" : 1200,
            "byteOffset" : 38900
        },
        {
            "buffer" : 0,
            "byteLength" : 1600,
            "byteOffset" : 40100
        },
        {
            "buffer" : 0,
            "byteLength" : 1200,
            "byteOffset" : 41700
        },
        {
            "buffer" : 0,
            "byteLength" : 1200,
            "byteOffset" : 42900
        },
        {
            "buffer" : 0,
            "byteLength" : 1600,
            "byteOffset" : 44100
        },
        {
            "buffer" : 0,
            "byteLength" : 1200,
            "byteOffset" : 45700
        },
        {
            "buffer" : 0,
            "byteLength" : 1200,
            "byteOffset" : 46900
        },
        {
            "buffer" : 0,
            "byteLength" : 1600,
            "byteOffset" : 48100
        },
        {
            "buffer" : 0,
            "byteLength" : 1200,
            "byteOffset" : 49700
        },
        {
            "buffer" : 0,
            "byteLength" : 1200,
            "byteOffset" : 50900
        },
        {
            "buffer" : 0,
            "byteLength" : 1600,
            "byteOffset" : 52100
        },
        {
            "buffer" : 0,
            "byteLength" : 1200,
            "byteOffset" : 53700
        }
    ],
    "buffers" : [
        {
            "byteLength" : 54900,
            "uri" : "testanim.bin"
        }
    ]
}
